<?xml version="1.0" encoding="UTF-8" standalone="no"?>
<!DOCTYPE svg PUBLIC "-//W3C//DTD SVG 1.1//EN"
 "http://www.w3.org/Graphics/SVG/1.1/DTD/svg11.dtd">
<!-- Generated by graphviz version 2.36.0 (20140111.2315)
 -->
<!-- Title: snakemake_dag Pages: 1 -->
<svg width="1198pt" height="260pt"
 viewBox="0.00 0.00 1198.00 260.00" xmlns="http://www.w3.org/2000/svg" xmlns:xlink="http://www.w3.org/1999/xlink">
<g id="graph0" class="graph" transform="scale(1 1) rotate(0) translate(4 256)">
<title>snakemake_dag</title>
<polygon fill="white" stroke="none" points="-4,4 -4,-256 1194,-256 1194,4 -4,4"/>
<!-- 0 -->
<g id="node1" class="node"><title>0</title>
<path fill="none" stroke="#5673d8" stroke-width="2" stroke-dasharray="5,2" d="M64.25,-108C64.25,-108 11.75,-108 11.75,-108 5.75,-108 -0.25,-102 -0.25,-96 -0.25,-96 -0.25,-84 -0.25,-84 -0.25,-78 5.75,-72 11.75,-72 11.75,-72 64.25,-72 64.25,-72 70.25,-72 76.25,-78 76.25,-84 76.25,-84 76.25,-96 76.25,-96 76.25,-102 70.25,-108 64.25,-108"/>
<text text-anchor="middle" x="38" y="-87.5" font-family="sans" font-size="10.00">get_genome</text>
</g>
<!-- 6 -->
<g id="node7" class="node"><title>6</title>
<path fill="none" stroke="#d8cb56" stroke-width="2" d="M552,-36C552,-36 522,-36 522,-36 516,-36 510,-30 510,-24 510,-24 510,-12 510,-12 510,-6 516,-0 522,-0 522,-0 552,-0 552,-0 558,-0 564,-6 564,-12 564,-12 564,-24 564,-24 564,-30 558,-36 552,-36"/>
<text text-anchor="middle" x="537" y="-15.5" font-family="sans" font-size="10.00">all</text>
</g>
<!-- 0&#45;&gt;6 -->
<g id="edge19" class="edge"><title>0&#45;&gt;6</title>
<path fill="none" stroke="grey" stroke-width="2" d="M76.2555,-74.3496C79.1912,-73.4758 82.1288,-72.678 85,-72 236.104,-36.3181 421.559,-24.1869 499.595,-20.4755"/>
<polygon fill="grey" stroke="grey" stroke-width="2" points="500.048,-23.9585 509.878,-20.0061 499.729,-16.9658 500.048,-23.9585"/>
</g>
<!-- 1 -->
<g id="node2" class="node"><title>1</title>
<path fill="none" stroke="#59d856" stroke-width="2" d="M209.25,-108C209.25,-108 106.75,-108 106.75,-108 100.75,-108 94.75,-102 94.75,-96 94.75,-96 94.75,-84 94.75,-84 94.75,-78 100.75,-72 106.75,-72 106.75,-72 209.25,-72 209.25,-72 215.25,-72 221.25,-78 221.25,-84 221.25,-84 221.25,-96 221.25,-96 221.25,-102 215.25,-108 209.25,-108"/>
<text text-anchor="middle" x="158" y="-87.5" font-family="sans" font-size="10.00">emsar_ercc_index_101</text>
</g>
<!-- 1&#45;&gt;6 -->
<g id="edge4" class="edge"><title>1&#45;&gt;6</title>
<path fill="none" stroke="grey" stroke-width="2" d="M221.384,-74.9619C226.325,-73.936 231.241,-72.9373 236,-72 330.835,-53.324 443.113,-34.3909 499.991,-25.0229"/>
<polygon fill="grey" stroke="grey" stroke-width="2" points="500.65,-28.4617 509.951,-23.3872 499.516,-21.5543 500.65,-28.4617"/>
</g>
<!-- 2 -->
<g id="node3" class="node"><title>2</title>
<path fill="none" stroke="#70d856" stroke-width="2" d="M391.5,-108C391.5,-108 328.5,-108 328.5,-108 322.5,-108 316.5,-102 316.5,-96 316.5,-96 316.5,-84 316.5,-84 316.5,-78 322.5,-72 328.5,-72 328.5,-72 391.5,-72 391.5,-72 397.5,-72 403.5,-78 403.5,-84 403.5,-84 403.5,-96 403.5,-96 403.5,-102 397.5,-108 391.5,-108"/>
<text text-anchor="middle" x="360" y="-87.5" font-family="sans" font-size="10.00">rsem_bwt2_idx</text>
</g>
<!-- 2&#45;&gt;6 -->
<g id="edge5" class="edge"><title>2&#45;&gt;6</title>
<path fill="none" stroke="grey" stroke-width="2" d="M403.299,-71.8761C433.053,-60.109 472.125,-44.6569 500.34,-33.4985"/>
<polygon fill="grey" stroke="grey" stroke-width="2" points="501.822,-36.6762 509.834,-29.7438 499.247,-30.1668 501.822,-36.6762"/>
</g>
<!-- 3 -->
<g id="node4" class="node"><title>3</title>
<path fill="none" stroke="#56d873" stroke-width="2" stroke-dasharray="5,2" d="M585.5,-108C585.5,-108 548.5,-108 548.5,-108 542.5,-108 536.5,-102 536.5,-96 536.5,-96 536.5,-84 536.5,-84 536.5,-78 542.5,-72 548.5,-72 548.5,-72 585.5,-72 585.5,-72 591.5,-72 597.5,-78 597.5,-84 597.5,-84 597.5,-96 597.5,-96 597.5,-102 591.5,-108 585.5,-108"/>
<text text-anchor="middle" x="567" y="-87.5" font-family="sans" font-size="10.00">get_anno</text>
</g>
<!-- 3&#45;&gt;6 -->
<g id="edge6" class="edge"><title>3&#45;&gt;6</title>
<path fill="none" stroke="grey" stroke-width="2" d="M559.584,-71.6966C556.206,-63.8132 552.13,-54.3042 548.377,-45.5464"/>
<polygon fill="grey" stroke="grey" stroke-width="2" points="551.487,-43.9171 544.33,-36.1043 545.053,-46.6745 551.487,-43.9171"/>
</g>
<!-- 4 -->
<g id="node5" class="node"><title>4</title>
<path fill="none" stroke="#5692d8" stroke-width="2" d="M742,-180C742,-180 686,-180 686,-180 680,-180 674,-174 674,-168 674,-168 674,-156 674,-156 674,-150 680,-144 686,-144 686,-144 742,-144 742,-144 748,-144 754,-150 754,-156 754,-156 754,-168 754,-168 754,-174 748,-180 742,-180"/>
<text text-anchor="middle" x="714" y="-165" font-family="sans" font-size="10.00">get_geuvadis</text>
<text text-anchor="middle" x="714" y="-154" font-family="sans" font-size="10.00">end: 1</text>
</g>
<!-- 4&#45;&gt;6 -->
<g id="edge7" class="edge"><title>4&#45;&gt;6</title>
<path fill="none" stroke="grey" stroke-width="2" d="M690.589,-143.844C677.035,-133.709 659.785,-120.459 645,-108 626.961,-92.7998 624.039,-87.2002 606,-72 594.102,-61.9746 580.609,-51.4368 568.73,-42.4219"/>
<polygon fill="grey" stroke="grey" stroke-width="2" points="570.504,-39.3769 560.411,-36.1559 566.293,-44.9682 570.504,-39.3769"/>
</g>
<!-- 10 -->
<g id="node11" class="node"><title>10</title>
<path fill="none" stroke="#8fd856" stroke-width="2" d="M732,-108C732,-108 666,-108 666,-108 660,-108 654,-102 654,-96 654,-96 654,-84 654,-84 654,-78 660,-72 666,-72 666,-72 732,-72 732,-72 738,-72 744,-78 744,-84 744,-84 744,-96 744,-96 744,-102 738,-108 732,-108"/>
<text text-anchor="middle" x="699" y="-87.5" font-family="sans" font-size="10.00">make_symlinks</text>
</g>
<!-- 4&#45;&gt;10 -->
<g id="edge21" class="edge"><title>4&#45;&gt;10</title>
<path fill="none" stroke="grey" stroke-width="2" d="M710.292,-143.697C708.639,-135.983 706.653,-126.712 704.81,-118.112"/>
<polygon fill="grey" stroke="grey" stroke-width="2" points="708.183,-117.149 702.665,-108.104 701.338,-118.616 708.183,-117.149"/>
</g>
<!-- 5 -->
<g id="node6" class="node"><title>5</title>
<path fill="none" stroke="#56d8a9" stroke-width="2" d="M163,-180C163,-180 113,-180 113,-180 107,-180 101,-174 101,-168 101,-168 101,-156 101,-156 101,-150 107,-144 113,-144 113,-144 163,-144 163,-144 169,-144 175,-150 175,-156 175,-156 175,-168 175,-168 175,-174 169,-180 163,-180"/>
<text text-anchor="middle" x="138" y="-159.5" font-family="sans" font-size="10.00">kal_ercc_idx</text>
</g>
<!-- 5&#45;&gt;6 -->
<g id="edge8" class="edge"><title>5&#45;&gt;6</title>
<path fill="none" stroke="grey" stroke-width="2" d="M172.485,-143.783C190.324,-134.232 212.059,-121.559 230,-108 248.304,-94.1663 246.678,-82.6512 267,-72 342.96,-32.187 445.169,-22.1491 499.452,-19.7047"/>
<polygon fill="grey" stroke="grey" stroke-width="2" points="499.791,-23.1943 509.648,-19.3105 499.52,-16.1996 499.791,-23.1943"/>
</g>
<!-- 7 -->
<g id="node8" class="node"><title>7</title>
<path fill="none" stroke="#d8ac56" stroke-width="2" d="M339.25,-252C339.25,-252 260.75,-252 260.75,-252 254.75,-252 248.75,-246 248.75,-240 248.75,-240 248.75,-228 248.75,-228 248.75,-222 254.75,-216 260.75,-216 260.75,-216 339.25,-216 339.25,-216 345.25,-216 351.25,-222 351.25,-228 351.25,-228 351.25,-240 351.25,-240 351.25,-246 345.25,-252 339.25,-252"/>
<text text-anchor="middle" x="300" y="-231.5" font-family="sans" font-size="10.00">merge_anno_ercc</text>
</g>
<!-- 7&#45;&gt;1 -->
<g id="edge1" class="edge"><title>7&#45;&gt;1</title>
<path fill="none" stroke="grey" stroke-width="2" d="M248.487,-227.078C193.296,-219.547 111.037,-204.496 92,-180 82.1819,-167.366 85.0823,-158.427 92,-144 97.6652,-132.185 107.391,-122.171 117.661,-114.136"/>
<polygon fill="grey" stroke="grey" stroke-width="2" points="119.911,-116.828 125.947,-108.12 115.798,-111.163 119.911,-116.828"/>
</g>
<!-- 7&#45;&gt;5 -->
<g id="edge3" class="edge"><title>7&#45;&gt;5</title>
<path fill="none" stroke="grey" stroke-width="2" d="M260.37,-215.876C237.464,-205.978 208.524,-193.473 184.539,-183.109"/>
<polygon fill="grey" stroke="grey" stroke-width="2" points="185.843,-179.86 175.275,-179.106 183.066,-186.286 185.843,-179.86"/>
</g>
<!-- 8 -->
<g id="node9" class="node"><title>8</title>
<path fill="none" stroke="#afd856" stroke-width="2" d="M275,-180C275,-180 205,-180 205,-180 199,-180 193,-174 193,-168 193,-168 193,-156 193,-156 193,-150 199,-144 205,-144 205,-144 275,-144 275,-144 281,-144 287,-150 287,-156 287,-156 287,-168 287,-168 287,-174 281,-180 275,-180"/>
<text text-anchor="middle" x="240" y="-159.5" font-family="sans" font-size="10.00">bwt2_anno_ercc</text>
</g>
<!-- 7&#45;&gt;8 -->
<g id="edge20" class="edge"><title>7&#45;&gt;8</title>
<path fill="none" stroke="grey" stroke-width="2" d="M285.169,-215.697C277.975,-207.305 269.203,-197.07 261.31,-187.861"/>
<polygon fill="grey" stroke="grey" stroke-width="2" points="263.826,-185.419 254.661,-180.104 258.511,-189.975 263.826,-185.419"/>
</g>
<!-- 15 -->
<g id="node16" class="node"><title>15</title>
<path fill="none" stroke="#56d892" stroke-width="2" d="M403,-180C403,-180 317,-180 317,-180 311,-180 305,-174 305,-168 305,-168 305,-156 305,-156 305,-150 311,-144 317,-144 317,-144 403,-144 403,-144 409,-144 415,-150 415,-156 415,-156 415,-168 415,-168 415,-174 409,-180 403,-180"/>
<text text-anchor="middle" x="360" y="-159.5" font-family="sans" font-size="10.00">rsem_prepare_ercc</text>
</g>
<!-- 7&#45;&gt;15 -->
<g id="edge24" class="edge"><title>7&#45;&gt;15</title>
<path fill="none" stroke="grey" stroke-width="2" d="M314.831,-215.697C322.025,-207.305 330.797,-197.07 338.69,-187.861"/>
<polygon fill="grey" stroke="grey" stroke-width="2" points="341.489,-189.975 345.339,-180.104 336.174,-185.419 341.489,-189.975"/>
</g>
<!-- 16 -->
<g id="node17" class="node"><title>16</title>
<path fill="none" stroke="#c6d856" stroke-width="2" d="M498.25,-180C498.25,-180 445.75,-180 445.75,-180 439.75,-180 433.75,-174 433.75,-168 433.75,-168 433.75,-156 433.75,-156 433.75,-150 439.75,-144 445.75,-144 445.75,-144 498.25,-144 498.25,-144 504.25,-144 510.25,-150 510.25,-156 510.25,-156 510.25,-168 510.25,-168 510.25,-174 504.25,-180 498.25,-180"/>
<text text-anchor="middle" x="472" y="-159.5" font-family="sans" font-size="10.00">sail_ercc_idx</text>
</g>
<!-- 7&#45;&gt;16 -->
<g id="edge25" class="edge"><title>7&#45;&gt;16</title>
<path fill="none" stroke="grey" stroke-width="2" d="M342.076,-215.876C366.857,-205.791 398.288,-192.999 424.029,-182.523"/>
<polygon fill="grey" stroke="grey" stroke-width="2" points="425.647,-185.644 433.59,-178.632 423.008,-179.16 425.647,-185.644"/>
</g>
<!-- 17 -->
<g id="node18" class="node"><title>17</title>
<path fill="none" stroke="#d88d56" stroke-width="2" d="M643.25,-180C643.25,-180 540.75,-180 540.75,-180 534.75,-180 528.75,-174 528.75,-168 528.75,-168 528.75,-156 528.75,-156 528.75,-150 534.75,-144 540.75,-144 540.75,-144 643.25,-144 643.25,-144 649.25,-144 655.25,-150 655.25,-156 655.25,-156 655.25,-168 655.25,-168 655.25,-174 649.25,-180 643.25,-180"/>
<text text-anchor="middle" x="592" y="-159.5" font-family="sans" font-size="10.00">emsar_ercc_index_100</text>
</g>
<!-- 7&#45;&gt;17 -->
<g id="edge26" class="edge"><title>7&#45;&gt;17</title>
<path fill="none" stroke="grey" stroke-width="2" d="M351.532,-220.647C397.906,-209.529 466.565,-193.07 518.659,-180.582"/>
<polygon fill="grey" stroke="grey" stroke-width="2" points="519.606,-183.954 528.515,-178.219 517.974,-177.147 519.606,-183.954"/>
</g>
<!-- 8&#45;&gt;6 -->
<g id="edge10" class="edge"><title>8&#45;&gt;6</title>
<path fill="none" stroke="grey" stroke-width="2" d="M248.268,-143.679C258.928,-123.279 279.426,-89.9078 307,-72 366.745,-33.1985 451.416,-22.6548 499.605,-19.8836"/>
<polygon fill="grey" stroke="grey" stroke-width="2" points="500.07,-23.3651 509.886,-19.3793 499.727,-16.3735 500.07,-23.3651"/>
</g>
<!-- 9 -->
<g id="node10" class="node"><title>9</title>
<path fill="none" stroke="#d87556" stroke-width="2" d="M829.25,-108C829.25,-108 774.75,-108 774.75,-108 768.75,-108 762.75,-102 762.75,-96 762.75,-96 762.75,-84 762.75,-84 762.75,-78 768.75,-72 774.75,-72 774.75,-72 829.25,-72 829.25,-72 835.25,-72 841.25,-78 841.25,-84 841.25,-84 841.25,-96 841.25,-96 841.25,-102 835.25,-108 829.25,-108"/>
<text text-anchor="middle" x="802" y="-87.5" font-family="sans" font-size="10.00">get_personal</text>
</g>
<!-- 9&#45;&gt;6 -->
<g id="edge11" class="edge"><title>9&#45;&gt;6</title>
<path fill="none" stroke="grey" stroke-width="2" d="M762.522,-74.949C759.312,-73.9148 756.109,-72.9185 753,-72 690.779,-53.6165 617.181,-36.5324 573.947,-26.9618"/>
<polygon fill="grey" stroke="grey" stroke-width="2" points="574.675,-23.5382 564.156,-24.8081 573.171,-30.3748 574.675,-23.5382"/>
</g>
<!-- 10&#45;&gt;6 -->
<g id="edge12" class="edge"><title>10&#45;&gt;6</title>
<path fill="none" stroke="grey" stroke-width="2" d="M659.37,-71.8761C633.123,-60.5347 598.954,-45.7703 573.395,-34.7262"/>
<polygon fill="grey" stroke="grey" stroke-width="2" points="574.623,-31.4443 564.055,-30.6906 571.847,-37.87 574.623,-31.4443"/>
</g>
<!-- 11 -->
<g id="node12" class="node"><title>11</title>
<path fill="none" stroke="#d85656" stroke-width="2" d="M958,-108C958,-108 872,-108 872,-108 866,-108 860,-102 860,-96 860,-96 860,-84 860,-84 860,-78 866,-72 872,-72 872,-72 958,-72 958,-72 964,-72 970,-78 970,-84 970,-84 970,-96 970,-96 970,-102 964,-108 958,-108"/>
<text text-anchor="middle" x="915" y="-87.5" font-family="sans" font-size="10.00">bwt2_genome_ercc</text>
</g>
<!-- 11&#45;&gt;6 -->
<g id="edge13" class="edge"><title>11&#45;&gt;6</title>
<path fill="none" stroke="grey" stroke-width="2" d="M859.761,-74.1992C856.465,-73.4262 853.193,-72.6865 850,-72 751.134,-50.7442 633.2,-32.7315 574.318,-24.2322"/>
<polygon fill="grey" stroke="grey" stroke-width="2" points="574.763,-20.7603 564.368,-22.8055 573.77,-27.6895 574.763,-20.7603"/>
</g>
<!-- 12 -->
<g id="node13" class="node"><title>12</title>
<path fill="none" stroke="#5692d8" stroke-width="2" d="M1080,-180C1080,-180 1024,-180 1024,-180 1018,-180 1012,-174 1012,-168 1012,-168 1012,-156 1012,-156 1012,-150 1018,-144 1024,-144 1024,-144 1080,-144 1080,-144 1086,-144 1092,-150 1092,-156 1092,-156 1092,-168 1092,-168 1092,-174 1086,-180 1080,-180"/>
<text text-anchor="middle" x="1052" y="-165" font-family="sans" font-size="10.00">get_geuvadis</text>
<text text-anchor="middle" x="1052" y="-154" font-family="sans" font-size="10.00">end: 2</text>
</g>
<!-- 12&#45;&gt;6 -->
<g id="edge14" class="edge"><title>12&#45;&gt;6</title>
<path fill="none" stroke="grey" stroke-width="2" d="M1040.14,-143.63C1023.8,-120.239 994.595,-80.5518 979,-72 909.508,-33.8925 667.666,-22.827 574.236,-19.9331"/>
<polygon fill="grey" stroke="grey" stroke-width="2" points="574.212,-16.431 564.113,-19.6339 574.005,-23.4279 574.212,-16.431"/>
</g>
<!-- 14 -->
<g id="node15" class="node"><title>14</title>
<path fill="none" stroke="#8fd856" stroke-width="2" d="M1104,-108C1104,-108 1038,-108 1038,-108 1032,-108 1026,-102 1026,-96 1026,-96 1026,-84 1026,-84 1026,-78 1032,-72 1038,-72 1038,-72 1104,-72 1104,-72 1110,-72 1116,-78 1116,-84 1116,-84 1116,-96 1116,-96 1116,-102 1110,-108 1104,-108"/>
<text text-anchor="middle" x="1071" y="-87.5" font-family="sans" font-size="10.00">make_symlinks</text>
</g>
<!-- 12&#45;&gt;14 -->
<g id="edge23" class="edge"><title>12&#45;&gt;14</title>
<path fill="none" stroke="grey" stroke-width="2" d="M1056.7,-143.697C1058.81,-135.898 1061.36,-126.509 1063.72,-117.829"/>
<polygon fill="grey" stroke="grey" stroke-width="2" points="1067.12,-118.672 1066.36,-108.104 1060.36,-116.838 1067.12,-118.672"/>
</g>
<!-- 13 -->
<g id="node14" class="node"><title>13</title>
<path fill="none" stroke="#56a9d8" stroke-width="2" d="M1177.25,-108C1177.25,-108 1146.75,-108 1146.75,-108 1140.75,-108 1134.75,-102 1134.75,-96 1134.75,-96 1134.75,-84 1134.75,-84 1134.75,-78 1140.75,-72 1146.75,-72 1146.75,-72 1177.25,-72 1177.25,-72 1183.25,-72 1189.25,-78 1189.25,-84 1189.25,-84 1189.25,-96 1189.25,-96 1189.25,-102 1183.25,-108 1177.25,-108"/>
<text text-anchor="middle" x="1162" y="-87.5" font-family="sans" font-size="10.00">ercc_gtf</text>
</g>
<!-- 13&#45;&gt;6 -->
<g id="edge15" class="edge"><title>13&#45;&gt;6</title>
<path fill="none" stroke="grey" stroke-width="2" d="M1134.5,-75.1389C1131.35,-73.9219 1128.14,-72.8369 1125,-72 1020.18,-44.0815 686.7,-26.0969 574.356,-20.7057"/>
<polygon fill="grey" stroke="grey" stroke-width="2" points="574.344,-17.2013 564.189,-20.2234 574.012,-24.1935 574.344,-17.2013"/>
</g>
<!-- 14&#45;&gt;6 -->
<g id="edge16" class="edge"><title>14&#45;&gt;6</title>
<path fill="none" stroke="grey" stroke-width="2" d="M1025.77,-75.1301C1021.15,-73.9638 1016.5,-72.8919 1012,-72 850.76,-40.0147 654.62,-25.7944 574.153,-20.9983"/>
<polygon fill="grey" stroke="grey" stroke-width="2" points="574.214,-17.496 564.028,-20.4086 573.807,-24.4842 574.214,-17.496"/>
</g>
<!-- 15&#45;&gt;2 -->
<g id="edge2" class="edge"><title>15&#45;&gt;2</title>
<path fill="none" stroke="grey" stroke-width="2" d="M360,-143.697C360,-135.983 360,-126.712 360,-118.112"/>
<polygon fill="grey" stroke="grey" stroke-width="2" points="363.5,-118.104 360,-108.104 356.5,-118.104 363.5,-118.104"/>
</g>
<!-- 15&#45;&gt;6 -->
<g id="edge17" class="edge"><title>15&#45;&gt;6</title>
<path fill="none" stroke="grey" stroke-width="2" d="M381.35,-143.871C412.846,-118.604 471.866,-71.2543 507.485,-42.6788"/>
<polygon fill="grey" stroke="grey" stroke-width="2" points="509.964,-45.177 515.574,-36.1893 505.584,-39.717 509.964,-45.177"/>
</g>
<!-- 16&#45;&gt;6 -->
<g id="edge18" class="edge"><title>16&#45;&gt;6</title>
<path fill="none" stroke="grey" stroke-width="2" d="M479.841,-143.871C491.016,-119.457 511.629,-74.4258 524.808,-45.6351"/>
<polygon fill="grey" stroke="grey" stroke-width="2" points="528.152,-46.7387 529.132,-36.1893 521.787,-43.8252 528.152,-46.7387"/>
</g>
<!-- 17&#45;&gt;6 -->
<g id="edge9" class="edge"><title>17&#45;&gt;6</title>
<path fill="none" stroke="grey" stroke-width="2" d="M560.42,-143.776C547.55,-134.931 534.058,-122.863 527,-108 517.813,-88.6549 521.406,-64.3632 526.687,-46.0475"/>
<polygon fill="grey" stroke="grey" stroke-width="2" points="530.093,-46.8881 529.815,-36.297 523.428,-44.7496 530.093,-46.8881"/>
</g>
<!-- 18 -->
<g id="node19" class="node"><title>18</title>
<path fill="none" stroke="#56c9d8" stroke-width="2" d="M962.25,-180C962.25,-180 867.75,-180 867.75,-180 861.75,-180 855.75,-174 855.75,-168 855.75,-168 855.75,-156 855.75,-156 855.75,-150 861.75,-144 867.75,-144 867.75,-144 962.25,-144 962.25,-144 968.25,-144 974.25,-150 974.25,-156 974.25,-156 974.25,-168 974.25,-168 974.25,-174 968.25,-180 962.25,-180"/>
<text text-anchor="middle" x="915" y="-159.5" font-family="sans" font-size="10.00">merge_genome_ercc</text>
</g>
<!-- 18&#45;&gt;11 -->
<g id="edge22" class="edge"><title>18&#45;&gt;11</title>
<path fill="none" stroke="grey" stroke-width="2" d="M915,-143.697C915,-135.983 915,-126.712 915,-118.112"/>
<polygon fill="grey" stroke="grey" stroke-width="2" points="918.5,-118.104 915,-108.104 911.5,-118.104 918.5,-118.104"/>
</g>
</g>
</svg>
